<svg width="138" height="45" viewBox="0 0 138 45" fill="none" xmlns="http://www.w3.org/2000/svg">
<path d="M1 12.5L6.36842 30L9.05263 15.125L14.4211 19.5L17.1053 12.5L26.0526 23.875L29.6316 20.375L34.1053 36.125L37.6842 22.125L43.9474 13.375L46.6316 19.5L54.6842 12.5L56.0477 22.125L59.1579 28.25L62.7368 22.125L65.4211 23L70.7895 5.5L75.2632 14.25L77.9474 2L83.3158 13.375H90.4737L93.1579 19.5L95.8421 10.75L102.105 41.375L106.281 43.125H108.592L111.053 33.5L120 43.125L120.895 37L128.053 28.25L129.842 34.375L131.632 40.5H137V43.125H120H108.592L108.368 44L106.281 43.125H1V12.5Z" fill="url(#paint0_linear_128_1193)"/>
<path d="M1 12.5C3.0965 19.3342 6.36842 30 6.36842 30L9.05263 15.125L14.4211 19.5L17.1053 12.5L26.0526 23.875L29.6316 20.375L34.1053 36.125L37.6842 22.125L43.9474 13.375L46.6316 19.5L54.6842 12.5L56.0477 22.125L59.1579 28.25L62.7368 22.125L65.4211 23L70.7895 5.5L75.2632 14.25L77.9474 2L83.3158 13.375H90.4737L93.1579 19.5L95.8421 10.75L102.105 41.375L108.368 44L111.053 33.5L120 43.125L120.895 37L128.053 28.25L129.842 34.375L131.632 40.5C131.632 40.5 134.903 40.5 137 40.5" stroke="#CF202F" stroke-linecap="round"/>
<defs>
<linearGradient id="paint0_linear_128_1193" x1="69" y1="2" x2="69" y2="44" gradientUnits="userSpaceOnUse">
<stop offset="0.260417" stop-color="#CF202F" stop-opacity="0.4"/>
<stop offset="1" stop-color="#CF202F" stop-opacity="0"/>
</linearGradient>
</defs>
</svg>
