<svg width="18" height="18" viewBox="0 0 18 18" fill="none" xmlns="http://www.w3.org/2000/svg">
<g clip-path="url(#clip0_128_1049)">
<path d="M0 0H18V18H0V0Z" fill="#0090BA"/>
<path fill-rule="evenodd" clip-rule="evenodd" d="M11.605 5H14L11.775 10.732C11.7424 10.8112 11.6868 10.8788 11.6152 10.9259C11.5437 10.973 11.4596 10.9974 11.374 10.996H9.022V10.993C9.09972 10.9869 9.17421 10.9593 9.23723 10.9134C9.30024 10.8675 9.34932 10.8051 9.379 10.733L11.605 5ZM8.83 10.909C8.75293 10.91 8.67717 10.889 8.61163 10.8484C8.54609 10.8078 8.49349 10.7494 8.46 10.68L7.98 9.447L8.797 7.345C8.82863 7.26994 8.8818 7.20594 8.94979 7.16108C9.01779 7.11623 9.09755 7.09254 9.179 7.093C9.346 7.093 9.49 7.188 9.551 7.324L10.028 8.553L9.212 10.656C9.18037 10.7311 9.1272 10.7951 9.05921 10.8399C8.99121 10.8848 8.91145 10.9085 8.83 10.908V10.909ZM9.004 7.004V7.006C8.9216 7.00772 8.8415 7.03342 8.77348 7.07995C8.70546 7.12649 8.65247 7.19183 8.621 7.268L6.396 13H4L6.225 7.268C6.25762 7.18863 6.31345 7.12095 6.38518 7.07384C6.45691 7.02674 6.5412 7.00239 6.627 7.004H9.004Z" fill="white"/>
</g>
<defs>
<clipPath id="clip0_128_1049">
<rect width="18" height="18" rx="4" fill="white"/>
</clipPath>
</defs>
</svg>
