<svg width="138" height="44" viewBox="0 0 138 44" fill="none" xmlns="http://www.w3.org/2000/svg">
<path d="M5.13514 40.6571L1 37.8286V44H137V23.6857L134.703 29.3429L130.568 31.7L126.892 21.3286H123.216L120.919 14.2571L118.622 17.0857H111.27L108.054 14.2571L103 23.6857L98.4054 10.0143L93.8108 7.18571L88.2973 8.12857L84.1622 2L78.6487 10.0143L76.3514 6.24286L71.7568 14.2571L66.2432 2L61.6487 14.2571H58.4324L52.4595 29.3429L45.1081 36.8857L41.4324 33.5857L35.4595 35.4714L34.5405 40.6571H29.4865L23.973 33.5857L17.0811 41.6L10.1892 35.4714L5.13514 40.6571Z" fill="url(#paint0_linear_128_1045)"/>
<path d="M1 37.7647L5.1599 40.5882L10.2442 35.4118L17.1774 41.5294L24.1105 33.5294L29.6571 40.5882H34.7414L35.6658 35.4118L41.6745 33.5294L45.3722 36.8235L52.7676 29.2941L58.7763 14.2353H62.0118L66.6339 2L72.1805 14.2353L76.8026 6.23529L79.1136 10L84.6601 2L88.82 8.11765L94.3666 7.17647L98.9887 10L103.611 23.6471L108.695 14.2353L111.931 17.0588H119.326L121.637 14.2353L123.948 21.2941H127.646L131.343 31.6471L135.503 29.2941L137 23.5615" stroke="#098551" stroke-linecap="round"/>
<defs>
<linearGradient id="paint0_linear_128_1045" x1="69" y1="2" x2="69" y2="44" gradientUnits="userSpaceOnUse">
<stop offset="0.260417" stop-color="#098551" stop-opacity="0.4"/>
<stop offset="1" stop-color="#098551" stop-opacity="0"/>
</linearGradient>
</defs>
</svg>
