<svg width="20" height="20" viewBox="0 0 20 20" fill="none" xmlns="http://www.w3.org/2000/svg">
<g id="&#232;&#129;&#148;&#231;&#179;&#187;&#230;&#136;&#145;&#228;&#187;&#172;">
<path id="Icon" d="M10.9207 3.37573C10.6445 3.34769 10.3631 3.33325 10.0776 3.33325C6.35289 3.33325 3.33337 5.7913 3.33337 8.82345C3.33337 11.8556 6.35289 14.3136 10.0776 14.3136C10.6598 14.3136 11.2248 14.2536 11.7637 14.1407L14.2928 16.6666V13.1372C15.4282 12.3694 16.3406 11.2157 16.6667 9.99992M16.6667 6.24992C16.6667 7.40051 15.734 8.33325 14.5834 8.33325C13.4328 8.33325 12.5 7.40051 12.5 6.24992C12.5 5.09933 13.4328 4.16659 14.5834 4.16659C15.734 4.16659 16.6667 5.09933 16.6667 6.24992Z" stroke="#68707A" stroke-width="1.5" stroke-linecap="round" stroke-linejoin="round"/>
</g>
</svg>
