<svg width="20" height="20" viewBox="0 0 20 20" fill="none" xmlns="http://www.w3.org/2000/svg">
<g id="&#233;&#128;&#154;&#231;&#159;&#165;">
<path id="Icon" d="M3.42135 15.0896L2.82599 14.6335L2.82599 14.6335L3.42135 15.0896ZM4.3905 12.3649L3.6405 12.3556V12.3649H4.3905ZM4.41084 10.7175L5.16084 10.7267V10.7175H4.41084ZM16.5839 15.1028L17.1883 14.6588L17.1883 14.6588L16.5839 15.1028ZM15.6512 12.3649L14.9012 12.3551V12.3649H15.6512ZM15.6716 10.7991L16.4216 10.8089V10.7991H15.6716ZM4.01672 15.5457C4.5769 14.8145 5.1405 13.7141 5.1405 12.3649H3.6405C3.6405 13.2895 3.25212 14.0772 2.82599 14.6335L4.01672 15.5457ZM5.14044 12.3741L5.16079 10.7267L3.6609 10.7082L3.64056 12.3556L5.14044 12.3741ZM17.1883 14.6588C16.7804 14.1035 16.4012 13.3064 16.4012 12.3649H14.9012C14.9012 13.7127 15.4412 14.8142 15.9795 15.5469L17.1883 14.6588ZM16.4012 12.3746L16.4215 10.8089L14.9216 10.7894L14.9013 12.3551L16.4012 12.3746ZM16.4216 10.7991C16.4216 7.27309 13.5405 4.42552 10 4.42552V5.92552C12.7241 5.92552 14.9216 8.11349 14.9216 10.7991H16.4216ZM16.2445 16.6163C16.8064 16.6163 17.1642 16.2246 17.3101 15.8847C17.455 15.5472 17.4845 15.0619 17.1883 14.6588L15.9795 15.5468C15.8876 15.4218 15.9209 15.3182 15.9318 15.293C15.9436 15.2653 16.0296 15.1163 16.2445 15.1163V16.6163ZM5.16084 10.7175C5.16084 8.07694 7.32141 5.92552 10 5.92552V4.42552C6.50501 4.42552 3.66084 7.23654 3.66084 10.7175H5.16084ZM3.7564 15.1163C3.97639 15.1163 4.06019 15.2706 4.06981 15.2937C4.07859 15.3148 4.11339 15.4195 4.01672 15.5457L2.82599 14.6335C2.51679 15.0371 2.54344 15.5301 2.68504 15.8702C2.82748 16.2123 3.18507 16.6163 3.7564 16.6163V15.1163ZM16.2445 15.1163H3.7564V16.6163H16.2445V15.1163ZM11.9167 15.8663C11.9167 16.7608 11.1146 17.5834 10 17.5834V19.0834C11.831 19.0834 13.4167 17.6969 13.4167 15.8663H11.9167ZM10 17.5834C8.8855 17.5834 8.08337 16.7608 8.08337 15.8663H6.58337C6.58337 17.6969 8.16906 19.0834 10 19.0834V17.5834ZM11.0278 3.42113C11.0278 3.96651 10.5771 4.42552 10 4.42552V5.92552C11.3867 5.92552 12.5278 4.8136 12.5278 3.42113H11.0278ZM10 4.42552C9.42302 4.42552 8.97226 3.96651 8.97226 3.42113H7.47226C7.47226 4.8136 8.61338 5.92552 10 5.92552V4.42552ZM8.97226 3.42113C8.97226 2.87576 9.42302 2.41675 10 2.41675V0.916748C8.61338 0.916748 7.47226 2.02867 7.47226 3.42113H8.97226ZM10 2.41675C10.5771 2.41675 11.0278 2.87576 11.0278 3.42113H12.5278C12.5278 2.02867 11.3867 0.916748 10 0.916748V2.41675Z" fill="#68707A"/>
</g>
</svg>
