<svg width="32" height="32" viewBox="0 0 32 32" fill="none" xmlns="http://www.w3.org/2000/svg">
<g id="logo">
<rect width="32" height="32" rx="8" fill="url(#paint0_linear_184_361)"/>
<path id="Union" fill-rule="evenodd" clip-rule="evenodd" d="M7.86349 9.81579C7.66403 9.61633 7.33656 9.63474 7.17885 9.86354C4.32861 13.9985 4.78374 19.7514 8.51608 23.4838C12.2484 27.2161 18.0013 27.6712 22.1363 24.821C22.3651 24.6633 22.3835 24.3358 22.184 24.1364L21.5023 23.4546C20.5593 22.5116 19.0991 22.4168 17.8216 22.7423C15.5138 23.3302 12.9455 22.7071 11.1192 20.8807C9.29278 19.0543 8.66968 16.4861 9.25759 14.1783C9.58305 12.9007 9.48826 11.4406 8.54526 10.4976L7.86349 9.81579ZM24.821 22.1363C24.6633 22.3651 24.3358 22.3835 24.1364 22.184L23.4546 21.5023C22.5116 20.5593 22.4168 19.0991 22.7423 17.8216C23.3302 15.5138 22.7071 12.9455 20.8807 11.1192C19.0543 9.29278 16.486 8.66968 14.1783 9.25759C12.9007 9.58305 11.4406 9.48826 10.4976 8.54526L9.81579 7.86349C9.61633 7.66403 9.63474 7.33656 9.86353 7.17885C13.9985 4.32861 19.7514 4.78374 23.4838 8.51608C27.2161 12.2484 27.6712 18.0013 24.821 22.1363Z" fill="url(#paint1_linear_184_361)"/>
</g>
<defs>
<linearGradient id="paint0_linear_184_361" x1="16" y1="0" x2="16" y2="32" gradientUnits="userSpaceOnUse">
<stop stop-color="#2B2D32"/>
<stop offset="1" stop-color="#1D1E23"/>
</linearGradient>
<linearGradient id="paint1_linear_184_361" x1="15.9999" y1="5.33325" x2="15.9999" y2="26.6666" gradientUnits="userSpaceOnUse">
<stop stop-color="#FEFEFE"/>
<stop offset="1" stop-color="#D9D9DA"/>
</linearGradient>
</defs>
</svg>
